<?xml version="1.0" encoding="UTF-8"?>
<svg version="1.1" xmlns="http://www.w3.org/2000/svg" width="500" height="500">
<path d="M0 0 C3.79417624 2.16599576 6.39175703 4.77787985 9.13671875 8.1484375 C12.40388102 12.14828147 15.75239687 13.77263519 20.39453125 15.875 C26.1133873 18.95148032 29.24130279 24.33100684 31.76171875 30.1484375 C32.32920119 33.70119731 32.63787689 37.22461244 32.94140625 40.80859375 C34.65443624 47.783073 41.83221725 51.69183152 47.23828125 55.96484375 C52.49374063 60.51252454 52.49374063 60.51252454 53.09765625 64.19921875 C53.11054688 64.94558594 53.1234375 65.69195312 53.13671875 66.4609375 C53.5530507 72.55205498 55.5567831 77.93937215 57.60546875 83.6328125 C62.17700913 97.53276636 59.57084167 113.26139767 57.94921875 127.5234375 C57.76655102 129.1870976 57.5845933 130.85083579 57.40332031 132.51464844 C56.86869368 137.39402765 56.31790898 142.27147436 55.76171875 147.1484375 C55.63932831 148.2236969 55.63932831 148.2236969 55.51446533 149.32067871 C54.89385219 154.76741144 54.27044147 160.21377692 53.62573242 165.65771484 C53.51076416 166.62918457 53.3957959 167.6006543 53.27734375 168.6015625 C53.12700684 169.85694824 53.12700684 169.85694824 52.97363281 171.13769531 C52.72678192 173.14295519 52.72678192 173.14295519 52.76171875 175.1484375 C53.35855469 175.39335937 53.95539063 175.63828125 54.5703125 175.890625 C59.67431784 178.82019669 63.46745152 186.15463901 65.2890625 191.59765625 C67.65746056 204.37917634 65.76759998 215.78630598 59.07421875 226.8984375 C53.95418989 234.08963382 46.304676 239.73888546 37.76171875 242.1484375 C34.67097194 242.43540182 31.87549606 242.34613765 28.76171875 242.1484375 C28.63796875 242.8290625 28.51421875 243.5096875 28.38671875 244.2109375 C24.24239538 263.68925733 13.01038199 279.84648935 -3.23828125 291.1484375 C-2.37364258 291.27371826 -1.50900391 291.39899902 -0.61816406 291.52807617 C54.87773448 299.65347168 54.87773448 299.65347168 74.76171875 317.1484375 C75.59316406 317.78265625 76.42460937 318.416875 77.28125 319.0703125 C79.86952275 321.23875518 81.71825444 323.46639059 83.76171875 326.1484375 C86.7890782 329.96663793 89.82616225 333.18281339 93.52734375 336.34057617 C108.1182626 348.84555613 115.60815304 366.21411723 117.76171875 385.1484375 C118.39973509 396.60819255 118.23689063 405.73185162 110.5546875 414.640625 C106.16857037 418.32916795 101.83078379 419.54051785 96.19491386 419.82958508 C94.34916161 419.92600625 94.34916161 419.92600625 92.46612144 420.02437532 C86.91807331 420.21018205 81.38149926 420.27418285 75.83059692 420.25007629 C74.62486865 420.24898011 73.41914037 420.24788393 72.17687488 420.24675453 C68.90987035 420.24281477 65.64291613 420.23440816 62.3759273 420.22392856 C58.88048737 420.21383657 55.38503973 420.20965129 51.88958931 420.20479298 C46.05778448 420.19597702 40.22599597 420.18376818 34.39420319 420.16904068 C26.29208284 420.14867663 18.18996985 420.13644537 10.08782959 420.12631226 C-20.35618955 420.08572033 -50.80011722 420.0042821 -81.24402046 419.91272259 C-84.23852652 419.90376257 -87.23303272 419.89485215 -90.22753906 419.88598633 C-90.97115137 419.88378264 -91.71476368 419.88157896 -92.48090969 419.8793085 C-104.69201723 419.84344431 -116.90312427 419.81882372 -129.11426581 419.79809048 C-141.78037426 419.77635553 -154.4464165 419.74338998 -167.1124686 419.69973594 C-174.86695179 419.67334944 -182.62135314 419.65555913 -190.37587897 419.64909146 C-196.26879675 419.64323193 -202.16159048 419.62169251 -208.05444908 419.59416199 C-210.46799969 419.58535023 -212.88157517 419.58166563 -215.29514122 419.58342934 C-218.58110826 419.58507349 -221.86648764 419.56845988 -225.15237427 419.54716492 C-226.5893739 419.55443628 -226.5893739 419.55443628 -228.05540383 419.56185454 C-232.94371718 419.50934047 -236.27714044 419.33832688 -240.23828125 416.1484375 C-243.06751043 413.2383732 -244.16611713 411.43228306 -245.17578125 407.4609375 C-245.52640625 406.3678125 -245.87703125 405.2746875 -246.23828125 404.1484375 C-247.90182915 403.47402619 -249.56895067 402.8084054 -251.23828125 402.1484375 C-256.09001867 396.83720405 -257.40683203 391.17434378 -257.23828125 384.1484375 C-255.87465425 361.76539674 -249.75890923 342.49109565 -235.23828125 325.1484375 C-234.59117187 324.33890625 -233.9440625 323.529375 -233.27734375 322.6953125 C-215.57349652 301.45069583 -188.93095821 296.84676313 -163.05078125 293.3359375 C-162.23228699 293.22457458 -161.41379272 293.11321167 -160.57049561 292.99847412 C-158.19640314 292.67972775 -155.82129119 292.37074729 -153.4453125 292.06640625 C-152.38364113 291.92619804 -152.38364113 291.92619804 -151.30052185 291.78315735 C-146.58026183 291.1984024 -141.99485871 291.07017693 -137.23828125 291.1484375 C-141.04406372 285.96865818 -141.04406372 285.96865818 -145.09277344 280.97949219 C-150.66129745 274.43108713 -154.34492472 267.5254467 -157.98828125 259.7734375 C-159.07973756 257.470388 -160.17842081 255.17074618 -161.28515625 252.875 C-161.75791992 251.87033691 -162.23068359 250.86567383 -162.71777344 249.83056641 C-164.28000428 247.07483936 -165.83924043 245.20471558 -168.23828125 243.1484375 C-170.6043956 242.43057009 -170.6043956 242.43057009 -173.11328125 242.2109375 C-177.9286807 241.35784331 -181.1579052 240.04249779 -184.23828125 236.1484375 C-191.23828125 225.47022976 -191.23828125 225.47022976 -191.23828125 222.1484375 C-191.83640625 221.88289062 -192.43453125 221.61734375 -193.05078125 221.34375 C-200.25098356 217.40935374 -203.7244101 209.16019605 -206.48828125 201.8359375 C-208.64722964 191.22110789 -207.21496132 181.52873 -201.42578125 172.3359375 C-199.4678234 169.50941189 -197.74017578 167.68585549 -194.86328125 165.8359375 C-192.05445188 163.49089943 -192.05445188 163.49089943 -191.91381836 160.84326172 C-192.03673343 152.00101101 -193.0283545 143.33939032 -194.17578125 134.5859375 C-194.5420333 131.73084357 -194.9045951 128.87528995 -195.265625 126.01953125 C-195.39592354 124.98888046 -195.39592354 124.98888046 -195.52885437 123.93740845 C-198.33151534 101.54011113 -200.71104282 77.02991569 -186.4921875 57.78515625 C-179.79806151 49.77106176 -171.60510225 43.37444201 -161.23828125 41.1484375 C-160.24828125 41.1484375 -159.25828125 41.1484375 -158.23828125 41.1484375 C-158.03203125 40.0346875 -157.82578125 38.9209375 -157.61328125 37.7734375 C-155.68778154 30.08509467 -151.15757387 23.34586516 -145.23828125 18.1484375 C-144.74972656 17.66890625 -144.26117188 17.189375 -143.7578125 16.6953125 C-133.19629595 6.76096439 -119.63910062 4.43662802 -105.65234375 4.859375 C-91.54662151 5.60754397 -78.74419675 11.52874783 -65.8840332 16.90722656 C-54.24257305 21.75259106 -41.01624251 26.5703546 -28.55078125 21.7109375 C-25.37832593 18.19551404 -24.49735686 14.63731577 -23.23828125 10.1484375 C-21.4862676 5.59320202 -19.45306424 2.71562177 -15.390625 0.0703125 C-10.41804635 -2.0595034 -5.02489812 -1.91174134 0 0 Z " fill="#2B1D10" transform="translate(326.23828125,49.8515625)"/>
<path d="M0 0 C4.09709322 1.52835388 5.7366847 4.09832588 8.1875 7.625 C21.83600184 26.34883813 43.12017872 35.03755161 65.375 38.8125 C91.07158525 42.67619943 116.91174261 38.50613942 139.8125 26.1015625 C142 25 142 25 144 25 C144.06973329 36.15337288 144.12292931 47.30669328 144.15543652 58.46024036 C144.17104405 63.64015761 144.19219198 68.81992489 144.22631836 73.99975586 C144.25908776 79.00535733 144.2768899 84.01081521 144.28463173 89.01651573 C144.29014383 90.91934148 144.30090704 92.82216002 144.31719017 94.72492409 C144.47299501 113.69856512 144.47299501 113.69856512 141 123 C140.69946213 123.86853104 140.39892426 124.73706207 140.08927917 125.63191223 C136.94897074 134.49252287 132.39166794 142.17349204 125 148 C123.65773405 149.65948115 122.32448137 151.32629015 121 153 C109.59366944 163.78723696 96.80575608 168.81503967 82 173 C81.36344482 173.18030762 80.72688965 173.36061523 80.07104492 173.54638672 C63.1024599 177.26295291 43.01146559 173.23658468 28 165 C26.70255859 164.29810547 26.70255859 164.29810547 25.37890625 163.58203125 C7.52350314 153.08647499 -5.03084554 137.77282415 -11 118 C-11.33 117.01 -11.66 116.02 -12 115 C-12.11178697 112.26504979 -12.16767335 109.55492373 -12.17700195 106.81933594 C-12.18357315 105.98467804 -12.19014435 105.15002014 -12.19691467 104.29006958 C-12.21665501 101.52150375 -12.22831875 98.75299249 -12.23828125 95.984375 C-12.24235678 95.03498299 -12.2464323 94.08559097 -12.25063133 93.1074295 C-12.27150619 88.07162189 -12.28579556 83.03584154 -12.29516602 78 C-12.30616687 72.83242269 -12.34048874 67.66528358 -12.38033772 62.49785995 C-12.40668104 58.49801924 -12.41487398 54.49827948 -12.41844749 50.49835968 C-12.42327657 48.59604216 -12.43478352 46.693728 -12.45348549 44.79149628 C-12.58960647 30.01447866 -12.2416618 12.70046771 -1.34765625 1.265625 C-0.90292969 0.84796875 -0.45820313 0.4303125 0 0 Z " fill="#AD7E59" transform="translate(184,155)"/>
<path d="M0 0 C0.66 0 1.32 0 2 0 C2.48198463 1.24891614 2.96045677 2.49918808 3.4375 3.75 C3.70433594 4.44609375 3.97117187 5.1421875 4.24609375 5.859375 C7.87334483 16.15851277 6.54829112 26.21359612 2.484375 36.16015625 C-0.12324036 41.14893617 -3.41919941 44.74522063 -8 48 C-8.66 48 -9.32 48 -10 48 C-10.47000434 53.74271517 -10.47000434 53.74271517 -8.25 58.875 C-3.78985634 63.0873579 0.04078123 63.40407812 6 64 C6 63.34 6 62.68 6 62 C7.88135876 60.33458337 9.74794647 58.81869608 11.75 57.3125 C12.28882813 56.88388672 12.82765625 56.45527344 13.3828125 56.01367188 C17.39957666 52.9717078 17.39957666 52.9717078 20.23828125 53.10546875 C26.0642966 56.0636894 29.60198543 62.136335 32 68 C32.60780546 71.65707095 32.57336888 75.17770021 32.4375 78.875 C32.41139648 80.32156982 32.41139648 80.32156982 32.38476562 81.79736328 C32.21293602 88.31697496 31.69405817 94.67753291 30 101 C27.81216208 98.34333967 25.8092013 95.70512928 23.9375 92.8125 C21.95288951 89.93161381 20.48011798 88.35476305 17.01171875 87.5234375 C9.51183272 87.04445318 4.46683653 90.17798692 -1.6875 93.96875 C-21.73232225 106.26038628 -48.78027885 109.41231433 -71.6953125 105.3125 C-75.24686566 104.40764569 -78.58035274 103.31399334 -82 102 C-83.27800803 101.55804715 -84.55668186 101.11801599 -85.8359375 100.6796875 C-100.24513839 95.53687102 -113.30043856 86.25086839 -120.3515625 72.33203125 C-121.16664151 70.59936329 -121.96049647 68.85645135 -122.7265625 67.1015625 C-124.22338958 64.63133867 -125.31909835 63.98195816 -128 63 C-134.11033999 61.98161 -138.95631803 64.84669325 -144 68 C-156.55363056 77.61337085 -162.47341983 92.63432247 -164.703125 107.76171875 C-164.80109375 108.50035156 -164.8990625 109.23898438 -165 110 C-171.98840675 101.97034067 -172.3650819 89.21772781 -172.375 79.0625 C-172.37653076 78.19955322 -172.37806152 77.33660645 -172.37963867 76.44750977 C-172.24090394 68.3923696 -171.05205095 61.05357018 -167 54 C-166.45859375 52.97326172 -166.45859375 52.97326172 -165.90625 51.92578125 C-163.79038933 48.14842743 -162.735174 46.33290898 -158.6875 44.5 C-157.3571875 44.2525 -157.3571875 44.2525 -156 44 C-156 43.34 -156 42.68 -156 42 C-150.73049518 39.8531647 -145.82903837 38.47345005 -140.19921875 37.625 C-137.60710671 36.88834294 -136.57834146 36.17460379 -135 34 C-134.60812772 32.0256123 -134.60812772 32.0256123 -134.625 29.875 C-133.96402142 22.33494805 -130.55317552 16.96139212 -124.8125 12.125 C-115.99380427 5.87358905 -106.60383771 4.98522413 -96 6 C-83.75491353 8.45734728 -71.02511967 13.23926591 -59.96972656 19.05883789 C-48.33958375 24.61587812 -31.26931379 25.90076485 -18.953125 21.93359375 C-9.14475193 17.36548091 -3.70135202 9.93157809 0 0 Z " fill="#505052" transform="translate(320,70)"/>
<path d="M0 0 C0.30292969 0.88042969 0.60585937 1.76085937 0.91796875 2.66796875 C3.9423114 11.32913305 3.9423114 11.32913305 10 18 C11.4191805 19.28890416 12.83556487 20.58089008 14.25 21.875 C17.13532141 24.42448892 20.06056014 26.85736931 23.125 29.1875 C26.68378029 31.90013672 30.0618629 34.7693152 33.42114258 37.72143555 C36.59223452 40.50659177 39.78890674 43.2611009 43 46 C43.80268311 46.68618408 43.80268311 46.68618408 44.62158203 47.38623047 C46.03806583 48.57604015 47.48690109 49.72702952 48.9375 50.875 C49.73027344 51.51179688 50.52304688 52.14859375 51.33984375 52.8046875 C55.09056148 54.49003203 58.1857143 54.26484561 62 53 C64.55870841 51.45133584 66.64723384 49.55271984 68.8125 47.5 C70.03419281 46.39736909 71.2568592 45.29581598 72.48046875 44.1953125 C73.07649902 43.65036133 73.6725293 43.10541016 74.28662109 42.54394531 C76.66438822 40.40131218 79.13518077 38.38559208 81.625 36.375 C86.51376069 32.40063196 91.37608419 28.39743508 96.19921875 24.34375 C97.91509377 22.90787132 99.64407451 21.48726206 101.39453125 20.09375 C108.22215494 14.52017964 110.89547037 8.41811852 113 0 C119.17791452 -0.2206398 122.57281654 0.39320413 129 2 C129 27.08 129 52.16 129 78 C81.48 78 33.96 78 -15 78 C-15 52.92 -15 27.84 -15 2 C-4 0 -4 0 0 0 Z " fill="#FCFCFB" transform="translate(193,359)"/>
<path d="M0 0 C2.72329888 1.93106648 5.3750665 3.9372204 8 6 C8.57363281 6.44859375 9.14726562 6.8971875 9.73828125 7.359375 C22.59117027 18.77053184 29.10861242 37.3707706 31 54 C31.63801634 65.45975505 31.47517188 74.58341412 23.79296875 83.4921875 C19.40685162 87.18073045 15.06906504 88.39208035 9.43319511 88.68114758 C7.58744286 88.77756875 7.58744286 88.77756875 5.70440269 88.87593782 C0.15635456 89.06174455 -5.38021949 89.12574535 -10.93112183 89.10163879 C-12.1368501 89.10054261 -13.34257838 89.09944643 -14.58484387 89.09831703 C-17.8518484 89.09437727 -21.11880262 89.08597066 -24.38579145 89.07549106 C-27.88123138 89.06539907 -31.37667902 89.06121379 -34.87212944 89.05635548 C-40.70393427 89.04753952 -46.53572278 89.03533068 -52.36751556 89.02060318 C-60.46963591 89.00023913 -68.5717489 88.98800787 -76.67388916 88.97787476 C-107.1179083 88.93728283 -137.56183597 88.8558446 -168.00573921 88.76428509 C-171.00024527 88.75532507 -173.99475147 88.74641465 -176.98925781 88.73754883 C-177.73287012 88.73534514 -178.47648243 88.73314146 -179.24262844 88.730871 C-191.45373598 88.69500681 -203.66484302 88.67038622 -215.87598456 88.64965298 C-228.54209301 88.62791803 -241.20813525 88.59495248 -253.87418735 88.55129844 C-261.62867054 88.52491194 -269.38307189 88.50712163 -277.13759772 88.50065396 C-283.0305155 88.49479443 -288.92330923 88.47325501 -294.81616783 88.44572449 C-297.22971844 88.43691273 -299.64329392 88.43322813 -302.05685997 88.43499184 C-305.34282701 88.43663599 -308.62820639 88.42002238 -311.91409302 88.39872742 C-312.87209277 88.40357499 -313.83009253 88.40842257 -314.81712258 88.41341704 C-319.70543593 88.36090297 -323.03885919 88.18988938 -327 85 C-330.61000231 81.28685477 -331.68225821 77.94588549 -333 73 C-332.28919655 73.00113916 -331.57839309 73.00227832 -330.84605014 73.003452 C-288.73436789 73.07056082 -246.62269184 73.12204682 -204.51096689 73.15319599 C-199.45652992 73.15694819 -194.40209306 73.16083115 -189.34765625 73.16479492 C-188.34139293 73.16558185 -187.33512962 73.16636878 -186.29837348 73.16717956 C-169.99706358 73.18023969 -153.69578537 73.20389687 -137.39449428 73.23145839 C-120.67254378 73.25949571 -103.9506099 73.27617272 -87.22863686 73.28226548 C-76.90716395 73.2863854 -66.58578058 73.299406 -56.26433523 73.3237494 C-49.19014304 73.33958593 -42.11599726 73.34440509 -35.04178862 73.34050413 C-30.95804651 73.33857934 -26.87446107 73.34156609 -22.79074669 73.35761642 C-19.05249505 73.37220189 -15.31450563 73.37296128 -11.57624198 73.36269668 C-9.58242125 73.36082646 -7.58860366 73.37377737 -5.59482753 73.38724393 C-4.40897693 73.38127078 -3.22312633 73.37529764 -2.00134087 73.36914349 C-0.97989318 73.37028265 0.04155451 73.37142181 1.09395516 73.37259549 C4.54283411 72.93040109 6.95584931 71.63495637 10 70 C10.66 70 11.32 70 12 70 C19.70059253 56.24894192 15.84425815 39.41830262 12 25 C9.65938248 17.79809995 6.29516703 11.43236269 2.234375 5.05859375 C1 3 1 3 0 0 Z " fill="#D6B47B" transform="translate(413,381)"/>
<path d="M0 0 C10.22490724 4.51682796 16.47951839 8.61170661 21 19 C21.56748244 22.55275981 21.87615814 26.07617494 22.1796875 29.66015625 C23.89271749 36.6346355 31.0704985 40.54339402 36.4765625 44.81640625 C41.73202188 49.36408704 41.73202188 49.36408704 42.3359375 53.05078125 C42.35527344 54.17033203 42.35527344 54.17033203 42.375 55.3125 C42.79133195 61.40361748 44.79506435 66.79093465 46.84375 72.484375 C51.41529038 86.38432886 48.80912292 102.11296017 47.1875 116.375 C47.00483227 118.0386601 46.82287455 119.70239829 46.64160156 121.36621094 C46.10697493 126.24559015 45.55619023 131.12303686 45 136 C44.91840637 136.7168396 44.83681274 137.4336792 44.75274658 138.17224121 C44.13213344 143.61897394 43.50872272 149.06533942 42.86401367 154.50927734 C42.74904541 155.48074707 42.63407715 156.4522168 42.515625 157.453125 C42.41540039 158.29004883 42.31517578 159.12697266 42.21191406 159.98925781 C41.96506317 161.99451769 41.96506317 161.99451769 42 164 C42.59683594 164.24492187 43.19367188 164.48984375 43.80859375 164.7421875 C48.91259909 167.67175919 52.70573277 175.00620151 54.52734375 180.44921875 C56.89574181 193.23073884 55.00588123 204.63786848 48.3125 215.75 C43.19247114 222.94119632 35.54295725 228.59044796 27 231 C23.90925319 231.28696432 21.11377731 231.19770015 18 231 C17.87625 231.680625 17.7525 232.36125 17.625 233.0625 C14.11778856 249.54639376 5.4037475 263.69701797 -7 275 C-7.61617188 275.59425781 -8.23234375 276.18851562 -8.8671875 276.80078125 C-11.74112332 279.31114688 -13.74186052 280.91200513 -17.625 281.18359375 C-21.28582762 280.84837262 -24.51244288 280.16251904 -28 279 C-29.22236309 267.71011868 -29.22236309 267.71011868 -26.39453125 263.75390625 C-24.3125 262 -24.3125 262 -22.23828125 260.5625 C-8.4859659 250.96227986 1.54054391 233.88681232 6 218 C6.71285156 217.89042969 7.42570312 217.78085937 8.16015625 217.66796875 C19.09042896 215.8585158 28.04481474 212.30916378 35.05859375 203.37890625 C41.38503161 193.8958258 43.26627775 185.40969015 42 174 C39.5336867 164.91648002 34.89453045 157.2630203 27 152 C26.8203125 149.25390625 26.8203125 149.25390625 27.125 145.5625 C27.17849609 144.87945801 27.23199219 144.19641602 27.28710938 143.49267578 C27.97824133 135.24006152 28.97559981 127.01261487 29.90600586 118.78442383 C31.2550213 106.91707914 31.2550213 106.91707914 32 95 C32.04882324 93.732771 32.04882324 93.732771 32.09863281 92.43994141 C32.62633126 76.84085543 32.12243986 62.80814777 24 49 C23.34 48.34 22.68 47.68 22 47 C21.731875 45.865625 21.46375 44.73125 21.1875 43.5625 C20.32897782 39.9645444 20.32897782 39.9645444 17.875 38.1875 C15.48425265 37.2000174 13.31912894 36.53132266 10.8203125 35.92578125 C9.55960937 35.62027344 8.29890625 35.31476563 7 35 C6.97421875 33.68386719 6.9484375 32.36773437 6.921875 31.01171875 C6.58886222 19.45848329 5.26886315 10.39596317 0 0 Z " fill="#D9B87B" transform="translate(337,61)"/>
<path d="M0 0 C4.66154042 1.49835228 5.86610751 4.88463591 8 9 C7.236875 9.66 6.47375 10.32 5.6875 11 C2.49573748 14.17367888 1.25154091 17.74645216 0 22 C-0.17392776 22.53728729 -0.34785553 23.07457458 -0.52705383 23.62814331 C-1.20879303 27.04711104 -1.14737267 30.44278685 -1.14526367 33.91455078 C-1.14862228 34.70861832 -1.1519809 35.50268585 -1.15544128 36.32081604 C-1.16493778 38.94566414 -1.16689412 41.57044829 -1.16796875 44.1953125 C-1.17118356 46.02652004 -1.1745478 47.85772732 -1.17805481 49.68893433 C-1.18404377 53.53058466 -1.18589508 57.37221251 -1.18530273 61.21386719 C-1.18520143 66.11609367 -1.19882182 71.01817428 -1.21607494 75.92036629 C-1.22724466 79.7055425 -1.22922038 83.49068409 -1.22869301 87.27587509 C-1.22986686 89.08182144 -1.23425496 90.88776887 -1.24202538 92.69369888 C-1.28702404 104.23780071 -0.78063059 114.50637317 3.125 125.5 C5 130.81021898 5 130.81021898 5 133 C5.66 133 6.32 133 7 133 C7.33 134.98 7.66 136.96 8 139 C8.66 139 9.32 139 10 139 C14 144.41176471 14 144.41176471 14 147 C14.66 147 15.32 147 16 147 C16.40863281 147.72058594 16.81726563 148.44117188 17.23828125 149.18359375 C19.36563451 152.58452879 22.0157968 154.70491413 25.1875 157.0625 C25.77120361 157.50150635 26.35490723 157.9405127 26.95629883 158.39282227 C41.85489814 169.4032153 59.84276311 171.69040087 78 170 C94.14186845 167.16614358 108.24777048 158.15191113 118 145 C119.38246455 142.76429561 120.71314357 140.53836916 122 138.25 C122.52327881 137.32356689 122.52327881 137.32356689 123.05712891 136.37841797 C130.30320608 123.40052098 132.30150561 112.67673316 132.4140625 97.90625 C132.43279733 96.34825644 132.45237243 94.79027278 132.4727478 93.2322998 C132.52383073 89.1553738 132.56358313 85.07841499 132.60089111 81.00134277 C132.64108122 76.8315434 132.69210469 72.66187771 132.7421875 68.4921875 C132.83866407 60.3282167 132.92315819 52.16417912 133 44 C132.40574219 44.176521 131.81148437 44.35304199 131.19921875 44.53491211 C128.46800519 45.34222358 125.73406798 46.13991141 123 46.9375 C121.59814453 47.35418945 121.59814453 47.35418945 120.16796875 47.77929688 C95.51480772 54.93388557 70.27922281 51.41239454 47.36328125 40.39453125 C45.17446736 39.10295016 43.75732846 37.79784323 42 36 C41.01 35.67 40.02 35.34 39 35 C38.67 34.01 38.34 33.02 38 32 C38.58523437 32.17015625 39.17046875 32.3403125 39.7734375 32.515625 C45.87200428 34.23714235 52.00649406 35.73500692 58.1875 37.125 C58.93499512 37.29547852 59.68249023 37.46595703 60.45263672 37.64160156 C87.36567298 43.60909428 115.63301173 39.19878531 139.8125 26.1015625 C142 25 142 25 144 25 C144.06973329 36.15337288 144.12292931 47.30669328 144.15543652 58.46024036 C144.17104405 63.64015761 144.19219198 68.81992489 144.22631836 73.99975586 C144.25908776 79.00535733 144.2768899 84.01081521 144.28463173 89.01651573 C144.29014383 90.91934148 144.30090704 92.82216002 144.31719017 94.72492409 C144.47299501 113.69856512 144.47299501 113.69856512 141 123 C140.69946213 123.86853104 140.39892426 124.73706207 140.08927917 125.63191223 C136.94897074 134.49252287 132.39166794 142.17349204 125 148 C123.65773405 149.65948115 122.32448137 151.32629015 121 153 C109.59366944 163.78723696 96.80575608 168.81503967 82 173 C81.36344482 173.18030762 80.72688965 173.36061523 80.07104492 173.54638672 C63.1024599 177.26295291 43.01146559 173.23658468 28 165 C26.70255859 164.29810547 26.70255859 164.29810547 25.37890625 163.58203125 C7.52350314 153.08647499 -5.03084554 137.77282415 -11 118 C-11.33 117.01 -11.66 116.02 -12 115 C-12.11178697 112.26504979 -12.16767335 109.55492373 -12.17700195 106.81933594 C-12.18357315 105.98467804 -12.19014435 105.15002014 -12.19691467 104.29006958 C-12.21665501 101.52150375 -12.22831875 98.75299249 -12.23828125 95.984375 C-12.24235678 95.03498299 -12.2464323 94.08559097 -12.25063133 93.1074295 C-12.27150619 88.07162189 -12.28579556 83.03584154 -12.29516602 78 C-12.30616687 72.83242269 -12.34048874 67.66528358 -12.38033772 62.49785995 C-12.40668104 58.49801924 -12.41487398 54.49827948 -12.41844749 50.49835968 C-12.42327657 48.59604216 -12.43478352 46.693728 -12.45348549 44.79149628 C-12.58960647 30.01447866 -12.2416618 12.70046771 -1.34765625 1.265625 C-0.90292969 0.84796875 -0.45820313 0.4303125 0 0 Z " fill="#976341" transform="translate(184,155)"/>
<path d="M0 0 C0 22.77 0 45.54 0 69 C-16.17 69 -32.34 69 -49 69 C-49 51.73425038 -45.18927151 32.45499014 -32.53515625 19.4296875 C-32.02855469 18.95789063 -31.52195312 18.48609375 -31 18 C-30.44183594 17.44570313 -29.88367188 16.89140625 -29.30859375 16.3203125 C-22.20885285 9.65040978 -10.14474101 0 0 0 Z " fill="#FBFAF9" transform="translate(137,368)"/>
<path d="M0 0 C17.99667374 6.92179759 32.80371279 16.61026897 42 34 C43.95425979 38.59326023 45.54961393 43.22605719 47 48 C47.24621094 48.72832031 47.49242187 49.45664062 47.74609375 50.20703125 C49.70825629 56.6348051 49 61.8307304 49 69 C32.83 69 16.66 69 0 69 C0 46.23 0 23.46 0 0 Z " fill="#D8DBE4" transform="translate(363,368)"/>
<path d="M0 0 C0.86367187 0.28875 1.72734375 0.5775 2.6171875 0.875 C26.73149776 8.89453967 51.12721752 11.65879707 75.41796875 2.36328125 C79 1 79 1 81 1 C81.05460454 3.18721529 81.0930633 5.37483631 81.125 7.5625 C81.14820313 8.78066406 81.17140625 9.99882812 81.1953125 11.25390625 C80.90757117 16.77278501 80.34921456 21.06330406 76.19921875 24.921875 C75.04159404 25.88043903 73.87017701 26.82252221 72.6875 27.75 C71.41531071 28.79160087 70.14317654 29.83326907 68.87109375 30.875 C67.90212158 31.65423828 67.90212158 31.65423828 66.91357422 32.44921875 C64.53217977 34.37912658 62.20308667 36.36553547 59.875 38.35913086 C54.02088095 43.36978534 48.0528985 48.23146371 42 53 C33.42334971 49.08035439 26.34849015 41.64974248 19.27099609 35.5078125 C16.47167571 33.08495509 13.66032702 30.70550934 10.73046875 28.44140625 C9.74691406 27.67699219 8.76335937 26.91257812 7.75 26.125 C6.44289062 25.13886719 6.44289062 25.13886719 5.109375 24.1328125 C0.59561305 19.56889764 0.6384643 13.69565663 0.375 7.625 C0.33632812 6.88894531 0.29765625 6.15289062 0.2578125 5.39453125 C0.16442002 3.59672594 0.0811629 1.79839892 0 0 Z " fill="#AB7C59" transform="translate(209,339)"/>
<path d="M0 0 C0.30292969 0.88042969 0.60585937 1.76085937 0.91796875 2.66796875 C3.9423114 11.32913305 3.9423114 11.32913305 10 18 C11.4191805 19.28890416 12.83556487 20.58089008 14.25 21.875 C17.13532141 24.42448892 20.06056014 26.85736931 23.125 29.1875 C26.68378029 31.90013672 30.0618629 34.7693152 33.42114258 37.72143555 C36.59223452 40.50659177 39.78890674 43.2611009 43 46 C43.80268311 46.68618408 43.80268311 46.68618408 44.62158203 47.38623047 C46.03806583 48.57604015 47.48690109 49.72702952 48.9375 50.875 C49.73027344 51.51179688 50.52304688 52.14859375 51.33984375 52.8046875 C55.09056148 54.49003203 58.1857143 54.26484561 62 53 C64.55870841 51.45133584 66.64723384 49.55271984 68.8125 47.5 C70.03419281 46.39736909 71.2568592 45.29581598 72.48046875 44.1953125 C73.07649902 43.65036133 73.6725293 43.10541016 74.28662109 42.54394531 C76.66438822 40.40131218 79.13518077 38.38559208 81.625 36.375 C86.51376069 32.40063196 91.37608419 28.39743508 96.19921875 24.34375 C97.91509377 22.90787132 99.64407451 21.48726206 101.39453125 20.09375 C108.22215494 14.52017964 110.89547037 8.41811852 113 0 C117.51617599 -0.07654536 121.59085217 -0.10228696 126 1 C125.01 1.33 124.02 1.66 123 2 C122.29910757 3.83717141 122.29910757 3.83717141 122 6.0625 C121.13481099 10.63773682 119.72803361 14.67991597 118 19 C117.34 19 116.68 19 116 19 C115.79375 19.54140625 115.5875 20.0828125 115.375 20.640625 C113.46315331 23.92118012 110.79501496 26.23844174 108 28.75 C107.4534375 29.25660156 106.906875 29.76320313 106.34375 30.28515625 C102.25842318 34 102.25842318 34 100 34 C100 34.66 100 35.32 100 36 C99.34 36 98.68 36 98 36 C98 36.66 98 37.32 98 38 C96.44684614 39.37248681 94.83114316 40.67478701 93.1875 41.9375 C90.28905378 44.17511721 87.54286259 46.36577708 85 49 C81.33333333 52 81.33333333 52 79 52 C79 52.66 79 53.32 79 54 C78.34 54 77.68 54 77 54 C77 54.66 77 55.32 77 56 C72.52941176 60 72.52941176 60 70 60 C70 60.66 70 61.32 70 62 C66.08104755 65.74081824 62.86156307 67.47434858 57.4375 68.0625 C49.17956274 67.71241288 44.36575056 62.08727028 38.73486328 56.64599609 C36.09276471 54.13923721 33.30119725 51.82543361 30.5 49.5 C27.06144315 46.60818585 23.64205008 43.69627758 20.25 40.75 C19.62416016 40.20794922 18.99832031 39.66589844 18.35351562 39.10742188 C17.15153269 38.06502782 15.95214537 37.01963027 14.75585938 35.97070312 C11.65268985 33.28323433 8.55614957 31.04092062 5 29 C-2.62726885 22.35058613 -6.57444591 14.6673163 -9 5 C-9.33 4.01 -9.66 3.02 -10 2 C-6.38026598 0.68373308 -3.90432869 0 0 0 Z " fill="#D9DCE5" transform="translate(193,359)"/>
<path d="M0 0 C1.98 0.66 3.96 1.32 6 2 C28.75996566 9.56694962 52.66457023 11.0704873 75.41796875 2.36328125 C79 1 79 1 81 1 C81 5.62 81 10.24 81 15 C80.01 14.505 80.01 14.505 79 14 C77.15112644 14.73768843 77.15112644 14.73768843 75.1875 15.875 C70.64101881 18.3900747 66.43071219 19.11682439 61.26074219 19.16113281 C60.34919373 19.17074036 59.43764526 19.1803479 58.49847412 19.19024658 C57.03743256 19.1966214 57.03743256 19.1966214 55.546875 19.203125 C54.53208069 19.20882507 53.51728638 19.21452515 52.47174072 19.22039795 C50.32671139 19.22982964 48.18166769 19.23637464 46.03662109 19.24023438 C42.77545519 19.24992436 39.51492399 19.28095925 36.25390625 19.3125 C34.16406622 19.31903238 32.07422171 19.32428193 29.984375 19.328125 C29.01844421 19.3404718 28.05251343 19.3528186 27.05731201 19.36553955 C19.05225347 19.339544 11.7772358 17.99955656 5.4375 12.8125 C4.44556641 12.01779297 4.44556641 12.01779297 3.43359375 11.20703125 C2.96050781 10.80871094 2.48742187 10.41039062 2 10 C2 11.98 2 13.96 2 16 C1.67 16 1.34 16 1 16 C0.67 10.72 0.34 5.44 0 0 Z " fill="#98633F" transform="translate(209,339)"/>
<path d="M0 0 C0 11.55 0 23.1 0 35 C-9.37313433 33.82835821 -9.37313433 33.82835821 -13 30 C-16.84548498 24.9073307 -17.64418087 20.95070728 -17.3828125 14.58203125 C-16.43726413 8.204404 -11.88642163 4.63882462 -7 1 C-4 0 -4 0 0 0 Z " fill="#92603F" transform="translate(154,225)"/>
<path d="M0 0 C6.50487419 1.0841457 10.4116414 2.44764861 14.33203125 7.828125 C16.88257735 12.40649044 18.15989643 16.80568119 17 22 C14.58719561 27.53404922 11.02992516 31.71515092 6 35 C4.02 35 2.04 35 0 35 C0 23.45 0 11.9 0 0 Z " fill="#97623F" transform="translate(346,225)"/>
<path d="M0 0 C3.4203866 1.17013226 3.91540482 1.87310723 6 5 C6.27470888 7.67768864 6.41578043 10.19625281 6.4375 12.875 C6.48680664 13.93654297 6.48680664 13.93654297 6.53710938 15.01953125 C6.57848701 19.05949302 6.17944363 20.77999919 3.59765625 23.9453125 C-0.16870146 26.9244165 -2.18552722 27.47200713 -7 27 C-9.69990662 25.20006226 -11.5418865 23.916227 -13 21 C-13.2037399 18.37757644 -13.32356725 15.81290797 -13.375 13.1875 C-13.41238281 12.47529297 -13.44976562 11.76308594 -13.48828125 11.02929688 C-13.55456988 7.04829645 -13.16337986 5.2148403 -10.73046875 2.015625 C-6.67790793 -0.97596496 -4.93012819 -0.54779202 0 0 Z " fill="#2F1D0F" transform="translate(295,220)"/>
<path d="M0 0 C3.03978021 0.68164768 4.80055419 2.23591662 6.93359375 4.43359375 C9.27335768 9.1131216 8.42939666 15.35449649 7.93359375 20.43359375 C6.70707956 23.69474596 5.88257428 24.28329544 2.93359375 26.43359375 C0.17640011 27.43974707 -2.14746012 27.80509598 -5.06640625 27.43359375 C-7.92634103 25.66895314 -9.56423474 24.43793678 -11.06640625 21.43359375 C-11.27014615 18.81117019 -11.3899735 16.24650172 -11.44140625 13.62109375 C-11.47878906 12.90888672 -11.51617187 12.19667969 -11.5546875 11.46289062 C-11.62099009 7.48105194 -11.23330489 5.65211053 -8.79296875 2.45703125 C-5.45408863 -0.02081961 -3.98855882 -0.24881369 0 0 Z " fill="#2E1D0F" transform="translate(210.06640625,219.56640625)"/>
<path d="M0 0 C1.98 0 3.96 0 6 0 C6 23.76 6 47.52 6 72 C4.02 72 2.04 72 0 72 C0 48.24 0 24.48 0 0 Z " fill="#85583D" transform="translate(154,365)"/>
<path d="M0 0 C1.65 0 3.3 0 5 0 C5 23.76 5 47.52 5 72 C3.35 72 1.7 72 0 72 C0 48.24 0 24.48 0 0 Z " fill="#8E5E3F" transform="translate(340,365)"/>
<path d="M0 0 C3.38602327 3.28521347 6.40395078 6.66354232 9.3125 10.375 C13.6034427 15.68146581 18.19258247 20.871338 24.21484375 24.23828125 C26 26 26 26 26.390625 29.35546875 C26.32101563 31.25232422 26.32101563 31.25232422 26.25 33.1875 C26.21390625 34.45980469 26.1778125 35.73210937 26.140625 37.04296875 C26.07101563 38.50669922 26.07101563 38.50669922 26 40 C25.34 40 24.68 40 24 40 C22.7734375 38.6015625 22.7734375 38.6015625 21.375 36.625 C19.7154899 34.30809943 18.0704234 32.07949079 16.1796875 29.9453125 C10.22588911 23.17196292 0 9.43508956 0 0 Z " fill="#D5B985" transform="translate(165,301)"/>
<path d="M0 0 C2.38592631 0.92786023 4.69044468 1.82508866 6.921875 3.0859375 C9.70296278 4.30919792 12.227378 4.42787248 15.25 4.625 C16.32765625 4.69976562 17.4053125 4.77453125 18.515625 4.8515625 C19.33546875 4.90054687 20.1553125 4.94953125 21 5 C21.86343731 7.28855702 22.7159811 9.5801928 23.5625 11.875 C23.80935547 12.52597656 24.05621094 13.17695313 24.31054688 13.84765625 C24.93173115 15.54497665 25.47152252 17.27156776 26 19 C25.67 19.66 25.34 20.32 25 21 C10.81503783 18.17677937 10.81503783 18.17677937 7 13 C4.47605313 8.75213031 2.1922795 4.42996124 0 0 Z " fill="#D9BA82" transform="translate(135,273)"/>
<path d="M0 0 C2.6875 -0.375 2.6875 -0.375 6 0 C12.24439721 5.17828061 15.44046546 14.25205425 16.21484375 22.20703125 C16.41392829 26.81782909 16.26912262 31.395013 16 36 C15.67 36 15.34 36 15 36 C14.98582031 35.09378906 14.97164063 34.18757813 14.95703125 33.25390625 C14.63815843 25.10972206 13.52412846 19.73686419 9 13 C8.61134766 11.92105469 8.61134766 11.92105469 8.21484375 10.8203125 C7.06891938 8.71078825 7.06891938 8.71078825 4.203125 8.00390625 C0.05281174 7.99884489 -1.19972324 9.20067192 -4.25 11.9375 C-8.8490566 16 -8.8490566 16 -11 16 C-11 16.66 -11 17.32 -11 18 C-17.0546875 18.1953125 -17.0546875 18.1953125 -19 18 C-19.66 17.34 -20.32 16.68 -21 16 C-19.73542969 15.74476563 -19.73542969 15.74476563 -18.4453125 15.484375 C-16.80175781 15.12085938 -16.80175781 15.12085938 -15.125 14.75 C-14.03445313 14.51796875 -12.94390625 14.2859375 -11.8203125 14.046875 C-8.91996252 13.29446331 -8.91996252 13.29446331 -7.80859375 11.1171875 C-7.54175781 10.41851562 -7.27492188 9.71984375 -7 9 C-6.01534941 7.7620043 -4.99338976 6.55282297 -3.9375 5.375 C-2.33621517 3.5818742 -1.07671842 2.15343684 0 0 Z " fill="#352E29" transform="translate(337,116)"/>
<path d="M0 0 C1.65 1.65 3.3 3.3 5 5 C5.66 4.67 6.32 4.34 7 4 C5 25.53191489 5 25.53191489 3 36 C2.67 36 2.34 36 2 36 C1.34 24.12 0.68 12.24 0 0 Z " fill="#352A24" transform="translate(344,164)"/>
<path d="M0 0 C0.28488281 0.5775 0.56976563 1.155 0.86328125 1.75 C1.56898479 3.14685649 2.31063241 4.52686769 3.10546875 5.875 C7.60259574 14.70690283 5.88349257 24.45661332 5 34 C3.32927811 31.01355231 2.6071084 28.46138423 2.1484375 25.078125 C1.95507812 23.66273438 1.95507812 23.66273438 1.7578125 22.21875 C1.63148438 21.2390625 1.50515625 20.259375 1.375 19.25 C1.2409375 18.28578125 1.106875 17.3215625 0.96875 16.328125 C0.2369877 10.83244075 -0.14448232 5.54286716 0 0 Z " fill="#382E2A" transform="translate(149,166)"/>
<path d="M0 0 C1.65 0 3.3 0 5 0 C4.67 0.66 4.34 1.32 4 2 C2.68 2 1.36 2 0 2 C-0.08636719 2.98871094 -0.17273438 3.97742188 -0.26171875 4.99609375 C-0.90506823 9.47475256 -2.72877987 13.08792675 -4.8125 17.0625 C-5.15603516 17.74376953 -5.49957031 18.42503906 -5.85351562 19.12695312 C-7.98384823 23.28769655 -10.33462422 27.16066096 -13 31 C-13.66 30.67 -14.32 30.34 -15 30 C-14.6875 28.0625 -14.6875 28.0625 -14 26 C-13.01 25.67 -12.02 25.34 -11 25 C-10.896875 24.236875 -10.79375 23.47375 -10.6875 22.6875 C-10 20 -10 20 -8.5 18.625 C-6.6524446 16.9318878 -6.6524446 16.9318878 -6.5 13.5 C-5.95285987 9.67001908 -5.64472756 9.44128698 -3 7 C-1.85759403 4.7100188 -0.94419105 2.38295838 0 0 Z " fill="#331F07" transform="translate(343,276)"/>
<path d="M0 0 C6 1 6 1 8 3 C5.69 2.67 3.38 2.34 1 2 C1.66 12.89 2.32 23.78 3 35 C2.01 35 1.02 35 0 35 C0 23.45 0 11.9 0 0 Z " fill="#8E6447" transform="translate(346,225)"/>
<path d="M0 0 C-0.33 1.32 -0.66 2.64 -1 4 C-1.99 4 -2.98 4 -4 4 C-4.33 4.99 -4.66 5.98 -5 7 C-4.34 7 -3.68 7 -3 7 C-3.33 8.32 -3.66 9.64 -4 11 C-5.32 10.34 -6.64 9.68 -8 9 C-8.66 9.66 -9.32 10.32 -10 11 C-13 12.6875 -13 12.6875 -16 14 C-16.66 13.67 -17.32 13.34 -18 13 C-16.43910974 11.58155991 -14.8762111 10.16532975 -13.3125 8.75 C-12.44238281 7.96109375 -11.57226562 7.1721875 -10.67578125 6.359375 C-3.46357616 0 -3.46357616 0 0 0 Z " fill="#D8D7DE" transform="translate(295,381)"/>
<path d="M0 0 C0.99 0 1.98 0 3 0 C3.33 1.98 3.66 3.96 4 6 C5.98 6 7.96 6 10 6 C9.7215625 6.8971875 9.7215625 6.8971875 9.4375 7.8125 C8.77906313 10.16408762 8.77906313 10.16408762 10 13 C10.21803307 14.55853267 10.40366356 16.12182651 10.5625 17.6875 C10.64628906 18.49574219 10.73007812 19.30398437 10.81640625 20.13671875 C10.87699219 20.75160156 10.93757813 21.36648437 11 22 C8.37649784 18.85179741 6.69509212 15.48754547 4.96484375 11.8046875 C4.01891485 9.82545172 4.01891485 9.82545172 2 8 C1.1436973 5.36766208 0.61070073 2.70453182 0 0 Z " fill="#CEAF81" transform="translate(357,100)"/>
<path d="M0 0 C5.4144841 3.83936145 10.75195857 7.84924977 15 13 C15 13.66 15 14.32 15 15 C13.02 15.33 11.04 15.66 9 16 C7.68370433 13.89812468 6.37187003 11.79368324 5.0625 9.6875 C4.68931641 9.09259766 4.31613281 8.49769531 3.93164062 7.88476562 C2.31175806 5.27252256 0.97592942 2.92778827 0 0 Z " fill="#D8BA86" transform="translate(413,381)"/>
<path d="M0 0 C4.66154042 1.49835228 5.86610751 4.88463591 8 9 C6.68 9.33 5.36 9.66 4 10 C3.67 8.68 3.34 7.36 3 6 C-1.39314793 7.01160848 -1.39314793 7.01160848 -4.375 10.125 C-4.58125 10.74375 -4.7875 11.3625 -5 12 C-5.75 10.375 -5.75 10.375 -6 8 C-4.24107963 4.96737867 -2.47809712 2.47809712 0 0 Z " fill="#8A5F40" transform="translate(184,155)"/>
<path d="M0 0 C0.66 1.32 1.32 2.64 2 4 C1.01 4.495 1.01 4.495 0 5 C-1.13350534 7.01669827 -1.13350534 7.01669827 -2 9 C-2.66 9 -3.32 9 -4 9 C-3.938125 10.3303125 -3.938125 10.3303125 -3.875 11.6875 C-3.99897246 14.97277013 -4.61387904 17.05449295 -6 20 C-7.98 20 -9.96 20 -12 20 C-11.01 19.67 -10.02 19.34 -9 19 C-8.56025717 17.13954958 -8.12752481 15.27710081 -7.734375 13.40625 C-6.31613235 8.75924217 -3.4666994 3.4666994 0 0 Z " fill="#4E361E" transform="translate(177,72)"/>
<path d="M0 0 C-0.33 0.99 -0.66 1.98 -1 3 C-3.31 3 -5.62 3 -8 3 C-8.19335938 3.91523438 -8.38671875 4.83046875 -8.5859375 5.7734375 C-8.84632813 6.96195312 -9.10671875 8.15046875 -9.375 9.375 C-9.63023437 10.55835938 -9.88546875 11.74171875 -10.1484375 12.9609375 C-11 16 -11 16 -13 18 C-13.99 18 -14.98 18 -16 18 C-14.14506608 12.28062041 -12.06896109 6.64444725 -10 1 C-2.25 0 -2.25 0 0 0 Z " fill="#C6A97D" transform="translate(353,278)"/>
<path d="M0 0 C0.33 0.99 0.66 1.98 1 3 C-0.2065625 3.8971875 -0.2065625 3.8971875 -1.4375 4.8125 C-4.22327984 6.80947276 -4.22327984 6.80947276 -5 10 C-5.66 10 -6.32 10 -7 10 C-7.66 12.31 -8.32 14.62 -9 17 C-8.34 17.33 -7.68 17.66 -7 18 C-7.99 18.33 -8.98 18.66 -10 19 C-10.66 18.67 -11.32 18.34 -12 18 C-10.99117074 11.19040252 -7.20064073 5.96144065 -2.125 1.4375 C-1.073125 0.7259375 -1.073125 0.7259375 0 0 Z " fill="#4E381C" transform="translate(133,214)"/>
<path d="M0 0 C1.03253906 0.01353516 1.03253906 0.01353516 2.0859375 0.02734375 C3.76577838 0.05067487 5.44543746 0.08653674 7.125 0.125 C7.125 0.455 7.125 0.785 7.125 1.125 C6.0628125 1.22296875 5.000625 1.3209375 3.90625 1.421875 C-7.16930028 2.54933407 -14.46702754 4.55782478 -22.875 12.125 C-22.875 11.135 -22.875 10.145 -22.875 9.125 C-21.1171875 7.37109375 -21.1171875 7.37109375 -18.75 5.5625 C-17.98429688 4.96308594 -17.21859375 4.36367187 -16.4296875 3.74609375 C-11.09556728 0.36129269 -6.19934968 -0.15618517 0 0 Z " fill="#332B24" transform="translate(213.875,74.875)"/>
<path d="M0 0 C0.33 0 0.66 0 1 0 C1.84381994 8.26943544 -1.21127025 15.3509127 -4 23 C-4.66 23 -5.32 23 -6 23 C-6.66 24.32 -7.32 25.64 -8 27 C-8.66 26.67 -9.32 26.34 -10 26 C-9.68546875 25.48953125 -9.3709375 24.9790625 -9.046875 24.453125 C-4.54847693 16.81126803 -1.59300186 8.72965018 0 0 Z " fill="#3B210B" transform="translate(327,267)"/>
<path d="M0 0 C0.66 0.33 1.32 0.66 2 1 C1.72285156 1.94359375 1.44570312 2.8871875 1.16015625 3.859375 C-1.13943177 11.92586564 -2.68598768 19.56876932 -3 28 C-3.99 28 -4.98 28 -6 28 C-5.58048884 24.45596252 -5.13619529 20.91545136 -4.6875 17.375 C-4.56955078 16.37597656 -4.45160156 15.37695312 -4.33007812 14.34765625 C-3.63416415 8.95878395 -2.84027234 4.66218372 0 0 Z " fill="#381C07" transform="translate(175,166)"/>
<path d="M0 0 C0.66 0 1.32 0 2 0 C2 0.66 2 1.32 2 2 C2.66 2 3.32 2 4 2 C8.76744186 6.30232558 8.76744186 6.30232558 10 10 C10.99 10 11.98 10 13 10 C14.32 12.31 15.64 14.62 17 17 C8.82245129 14.1983007 3.76116808 7.52233617 0 0 Z " fill="#371E0A" transform="translate(190,160)"/>
<path d="M0 0 C0.66 0.99 1.32 1.98 2 3 C0.25 6.875 0.25 6.875 -2 8 C-2.33 8.99 -2.66 9.98 -3 11 C-3.66 11 -4.32 11 -5 11 C-5 11.66 -5 12.32 -5 13 C-5.66 13 -6.32 13 -7 13 C-7.33 14.65 -7.66 16.3 -8 18 C-9.65 18.33 -11.3 18.66 -13 19 C-12.64808594 18.55011719 -12.29617188 18.10023438 -11.93359375 17.63671875 C-7.59080988 11.97862698 -3.76266389 6.05588508 0 0 Z " fill="#C4A879" transform="translate(336,296)"/>
<path d="M0 0 C1.65 0 3.3 0 5 0 C5 6.27 5 12.54 5 19 C4.67 19 4.34 19 4 19 C4 13.39 4 7.78 4 2 C3.01 2.495 3.01 2.495 2 3 C1.67 8.61 1.34 14.22 1 20 C0.67 20 0.34 20 0 20 C0 13.4 0 6.8 0 0 Z " fill="#896046" transform="translate(340,365)"/>
<path d="M0 0 C-1.01050012 2.66404576 -1.97233585 3.97707828 -4.1875 5.8125 C-7.86226877 7.36406904 -10.17619899 6.95595025 -14 6 C-14.33 5.34 -14.66 4.68 -15 4 C-11.60494113 3.02998318 -8.52935443 3 -5 3 C-5 2.34 -5 1.68 -5 1 C-3 0 -3 0 0 0 Z " fill="#3D220D" transform="translate(217,240)"/>
<path d="M0 0 C5 2 5 2 6.921875 3.0859375 C9.70296278 4.30919792 12.227378 4.42787248 15.25 4.625 C16.32765625 4.69976562 17.4053125 4.77453125 18.515625 4.8515625 C19.33546875 4.90054687 20.1553125 4.94953125 21 5 C21 5.33 21 5.66 21 6 C19.2300132 6.19532961 17.45895721 6.38098882 15.6875 6.5625 C14.70136719 6.66691406 13.71523437 6.77132813 12.69921875 6.87890625 C10 7 10 7 7 6 C6.34 7.32 5.68 8.64 5 10 C3.35 6.7 1.7 3.4 0 0 Z " fill="#C2A476" transform="translate(135,273)"/>
<path d="M0 0 C1.98 0.66 3.96 1.32 6 2 C5.67 3.32 5.34 4.64 5 6 C4.34 6 3.68 6 3 6 C2.67 9.3 2.34 12.6 2 16 C1.67 16 1.34 16 1 16 C0.67 10.72 0.34 5.44 0 0 Z " fill="#855942" transform="translate(209,339)"/>
<path d="M0 0 C2.97 0.495 2.97 0.495 6 1 C6.33 4.63 6.66 8.26 7 12 C6.34 12 5.68 12 5 12 C2.28317615 8.26436721 1.13273539 4.44380808 0 0 Z " fill="#564027" transform="translate(159,289)"/>
<path d="M0 0 C0.99 0.99 1.98 1.98 3 3 C2.01 3.33 1.02 3.66 0 4 C-0.90238747 6.70716242 -1.11851302 8.23776768 -1.09765625 11.01171875 C-1.09443359 11.76904297 -1.09121094 12.52636719 -1.08789062 13.30664062 C-1.07951172 14.09232422 -1.07113281 14.87800781 -1.0625 15.6875 C-1.05798828 16.48478516 -1.05347656 17.28207031 -1.04882812 18.10351562 C-1.0370585 20.06904257 -1.01912348 22.03453085 -1 24 C-1.66 24 -2.32 24 -3 24 C-3.27808896 21.31281432 -3.52291845 18.6290842 -3.75 15.9375 C-3.83121094 15.18533203 -3.91242188 14.43316406 -3.99609375 13.65820312 C-4.44972191 7.8366417 -3.298648 4.8137247 0 0 Z " fill="#9D795C" transform="translate(284,218)"/>
<path d="M0 0 C0.99 0.33 1.98 0.66 3 1 C4.33106622 1.34227417 5.66400079 1.67751743 7 2 C7.12375 2.639375 7.2475 3.27875 7.375 3.9375 C7.58125 4.618125 7.7875 5.29875 8 6 C8.66 6.33 9.32 6.66 10 7 C9.01 7.66 8.02 8.32 7 9 C4.36 6.69 1.72 4.38 -1 2 C-0.67 1.34 -0.34 0.68 0 0 Z " fill="#2B2018" transform="translate(204,376)"/>
<path d="M0 0 C1.9375 0.3125 1.9375 0.3125 4 1 C5.1066598 4.31997939 5.20240272 6.94306627 5.25 10.4375 C5.27578125 11.57058594 5.3015625 12.70367187 5.328125 13.87109375 C5 17 5 17 2 21 C2.33 14.73 2.66 8.46 3 2 C1.68 2.33 0.36 2.66 -1 3 C-0.67 2.01 -0.34 1.02 0 0 Z " fill="#3F230F" transform="translate(287,338)"/>
<path d="M0 0 C1.7074998 1.28062485 3.37373596 2.61767557 5 4 C5 4.66 5 5.32 5 6 C5.969375 6.12375 6.93875 6.2475 7.9375 6.375 C9.4534375 6.684375 9.4534375 6.684375 11 7 C11.33 7.66 11.66 8.32 12 9 C5.87903309 7.94513949 1.24493326 6.34782974 -4 3 C-2.68 2.67 -1.36 2.34 0 2 C0 1.34 0 0.68 0 0 Z " fill="#3B210F" transform="translate(214,336)"/>
<path d="M0 0 C0.33 0.99 0.66 1.98 1 3 C-0.65 4.65 -2.3 6.3 -4 8 C-3.67 8.66 -3.34 9.32 -3 10 C-3.66 10.66 -4.32 11.32 -5 12 C-7.475 11.01 -7.475 11.01 -10 10 C-7.02911382 6.00073014 -3.87051275 3.07881696 0 0 Z " fill="#D4D1D5" transform="translate(275,395)"/>
<path d="M0 0 C2.64 0 5.28 0 8 0 C4 4 4 4 2.3125 5.625 C0.88435687 6.98621473 0.88435687 6.98621473 0 9 C-0.66 9 -1.32 9 -2 9 C-1.34 6.03 -0.68 3.06 0 0 Z " fill="#C5C2C5" transform="translate(306,359)"/>
<path d="M0 0 C2.9375 0.75 2.9375 0.75 6 2 C6.75 4.0625 6.75 4.0625 7 6 C7.66 6.33 8.32 6.66 9 7 C9 8.32 9 9.64 9 11 C8.01 11 7.02 11 6 11 C4.02 7.37 2.04 3.74 0 0 Z " fill="#D1B281" transform="translate(371,218)"/>
<path d="M0 0 C3.3 0.33 6.6 0.66 10 1 C9.67 3.31 9.34 5.62 9 8 C7.68388323 7.04663979 6.37221039 6.08714226 5.0625 5.125 C4.33160156 4.59132813 3.60070312 4.05765625 2.84765625 3.5078125 C1 2 1 2 0 0 Z " fill="#312520" transform="translate(221,392)"/>
<path d="M0 0 C0.33 0 0.66 0 1 0 C1.07347656 1.04800781 1.07347656 1.04800781 1.1484375 2.1171875 C1.22320312 3.02726563 1.29796875 3.93734375 1.375 4.875 C1.44460938 5.77992188 1.51421875 6.68484375 1.5859375 7.6171875 C1.79568132 10.17941903 1.79568132 10.17941903 4 12 C3.625 14.125 3.625 14.125 3 16 C1 15 1 15 -1 13 C-1.36827609 8.4333765 -1.11436226 4.45744906 0 0 Z " fill="#C3A57B" transform="translate(365,200)"/>
<path d="M0 0 C0 0.66 0 1.32 0 2 C-0.66 2 -1.32 2 -2 2 C-2 2.99 -2 3.98 -2 5 C-2.99 5.66 -3.98 6.32 -5 7 C-5.33 7.66 -5.66 8.32 -6 9 C-7.65 9 -9.3 9 -11 9 C-11 8.34 -11 7.68 -11 7 C-9.1015625 5.2734375 -9.1015625 5.2734375 -6.625 3.375 C-5.40683594 2.42753906 -5.40683594 2.42753906 -4.1640625 1.4609375 C-2 0 -2 0 0 0 Z " fill="#422A17" transform="translate(190,62)"/>
<path d="M0 0 C0.680625 0.515625 1.36125 1.03125 2.0625 1.5625 C5.80118832 3.39207088 8.00443413 2.86178872 12 2 C12 2.99 12 3.98 12 5 C5.01057082 6.44608879 5.01057082 6.44608879 2.1328125 5.17578125 C0.5 4.0625 0.5 4.0625 -2 2 C-1.34 1.34 -0.68 0.68 0 0 Z " fill="#3D332F" transform="translate(243,408)"/>
<path d="M0 0 C0.66 0.33 1.32 0.66 2 1 C1.5875 1.350625 1.175 1.70125 0.75 2.0625 C-0.91140327 3.90191076 -1.76896278 5.435406 -2.875 7.625 C-5 11 -5 11 -7.75 11.9375 C-8.4925 11.958125 -9.235 11.97875 -10 12 C-3.84965831 3.55353075 -3.84965831 3.55353075 0 0 Z " fill="#685635" transform="translate(99,366)"/>
<path d="M0 0 C0.66 0.33 1.32 0.66 2 1 C-2 5 -6 9 -10 13 C-9.33333333 11.66666667 -8.66666667 10.33333333 -8 9 C-7.566875 7.989375 -7.13375 6.97875 -6.6875 5.9375 C-4.81510657 2.67814847 -3.41827125 1.49001567 0 0 Z " fill="#4A443F" transform="translate(162,114)"/>
<path d="M0 0 C0.99 0.33 1.98 0.66 3 1 C3 8.92 3 16.84 3 25 C2.67 25 2.34 25 2 25 C1.93941406 23.69804688 1.87882812 22.39609375 1.81640625 21.0546875 C1.73195438 19.32811601 1.64730874 17.601554 1.5625 15.875 C1.52318359 15.0190625 1.48386719 14.163125 1.44335938 13.28125 C1.21843598 8.78278208 0.86459117 4.43193793 0 0 Z " fill="#D4B886" transform="translate(342,70)"/>
<path d="M0 0 C0.66 0.33 1.32 0.66 2 1 C-0.70623013 5.68385984 -2.87323859 8.10532731 -8 10 C-8.66 9.67 -9.32 9.34 -10 9 C-6.7 6.03 -3.4 3.06 0 0 Z " fill="#D3D0D3" transform="translate(287,385)"/>
<path d="M0 0 C1.32 0.33 2.64 0.66 4 1 C2.5140084 5.59306496 0.14985318 8.43569245 -3 12 C-3.33 11.01 -3.66 10.02 -4 9 C-3.01439389 7.65599167 -2.01241685 6.32392972 -1 5 C-0.28566879 2.35065178 -0.28566879 2.35065178 0 0 Z " fill="#3C270F" transform="translate(372,257)"/>
<path d="M0 0 C2.475 0.495 2.475 0.495 5 1 C5.625 4.375 5.625 4.375 6 8 C5.34 8.66 4.68 9.32 4 10 C3.32845067 8.71086513 2.66291141 7.41859796 2 6.125 C1.62875 5.40570313 1.2575 4.68640625 0.875 3.9453125 C0 2 0 2 0 0 Z " fill="#DBBB87" transform="translate(80,454)"/>
<path d="M0 0 C0.99 0.4021875 0.99 0.4021875 2 0.8125 C5.64939067 2.25705047 9.32245433 3.62871178 13 5 C13 5.66 13 6.32 13 7 C10.36 6.67 7.72 6.34 5 6 C4.67 5.01 4.34 4.02 4 3 C1.98491642 2.26676204 1.98491642 2.26676204 0 2 C0 1.34 0 0.68 0 0 Z " fill="#391D0A" transform="translate(208,318)"/>
<path d="M0 0 C1.051875 0.5878125 1.051875 0.5878125 2.125 1.1875 C1 2.6875 1 2.6875 -0.875 4.1875 C-3.9375 4.5 -3.9375 4.5 -6.875 4.1875 C-7.535 3.5275 -8.195 2.8675 -8.875 2.1875 C-3.58269231 -1.0125 -3.58269231 -1.0125 0 0 Z " fill="#C6AA72" transform="translate(425.875,451.8125)"/>
<path d="M0 0 C0.99 0.66 1.98 1.32 3 2 C1.02 4.97 -0.96 7.94 -3 11 C-3.66 10.67 -4.32 10.34 -5 10 C-4.6875 8.0625 -4.6875 8.0625 -4 6 C-3.01 5.67 -2.02 5.34 -1 5 C-0.67 3.35 -0.34 1.7 0 0 Z " fill="#38230F" transform="translate(333,296)"/>
<path d="M0 0 C2.64 1.98 5.28 3.96 8 6 C5 7 5 7 1.875 5.75 C-1 4 -1 4 -2 1 C-1.34 0.67 -0.68 0.34 0 0 Z " fill="#D5D3D5" transform="translate(226,397)"/>
<path d="M0 0 C0.66 0 1.32 0 2 0 C1.34 1.65 0.68 3.3 0 5 C-0.66 5 -1.32 5 -2 5 C-2.66 6.32 -3.32 7.64 -4 9 C-5.32 8.67 -6.64 8.34 -8 8 C-7.236875 7.4225 -6.47375 6.845 -5.6875 6.25 C-2.99108421 4.16642802 -2.99108421 4.16642802 -1.3125 1.75 C-0.879375 1.1725 -0.44625 0.595 0 0 Z " fill="#391E0B" transform="translate(316,295)"/>
<path d="M0 0 C0.99 0.33 1.98 0.66 3 1 C0.69 4.3 -1.62 7.6 -4 11 C-4.66 10.34 -5.32 9.68 -6 9 C-4.625 6.5 -4.625 6.5 -3 4 C-2.34 4 -1.68 4 -1 4 C-0.67 2.68 -0.34 1.36 0 0 Z " fill="#895F43" transform="translate(317,289)"/>
<path d="M0 0 C2.375 0.25 2.375 0.25 5 1 C6.375 2.875 6.375 2.875 7 5 C6.67 5.99 6.34 6.98 6 8 C4.99403703 7.0479279 3.99538437 6.08812654 3 5.125 C2.443125 4.59132813 1.88625 4.05765625 1.3125 3.5078125 C0 2 0 2 0 0 Z " fill="#5C462D" transform="translate(127,264)"/>
<path d="M0 0 C0.66 0 1.32 0 2 0 C1.67 4.29 1.34 8.58 1 13 C0.34 12.67 -0.32 12.34 -1 12 C-1.02687279 10.18757948 -1.04633715 8.37504767 -1.0625 6.5625 C-1.07410156 5.55316406 -1.08570312 4.54382813 -1.09765625 3.50390625 C-1 1 -1 1 0 0 Z " fill="#5C482B" transform="translate(120,236)"/>
<path d="M0 0 C1.65 1.32 3.3 2.64 5 4 C4.67 4.66 4.34 5.32 4 6 C3.34 5.67 2.68 5.34 2 5 C1.67 5.99 1.34 6.98 1 8 C0.01 7.67 -0.98 7.34 -2 7 C-2 6.01 -2 5.02 -2 4 C-1.34 4 -0.68 4 0 4 C0 2.68 0 1.36 0 0 Z " fill="#E0C287" transform="translate(380,225)"/>
<path d="M0 0 C5.0022542 4.08078632 6.07934219 7.69280693 7 14 C3.94998169 10.33997803 0 4.92148529 0 0 Z " fill="#EBCF9D" transform="translate(165,301)"/>
<path d="M0 0 C-2 3 -2 3 -5.125 3.6875 C-6.07375 3.790625 -7.0225 3.89375 -8 4 C-7.625 2.0625 -7.625 2.0625 -7 0 C-4.3333581 -1.33332095 -2.83319697 -0.67102033 0 0 Z " fill="#3F2E18" transform="translate(158,97)"/>
<path d="M0 0 C0.99 0.33 1.98 0.66 3 1 C2.01 1.495 2.01 1.495 1 2 C1.45822468 5.46941546 1.89131683 8.67395049 3 12 C3.66 12 4.32 12 5 12 C4.67 12.99 4.34 13.98 4 15 C2 13.6875 2 13.6875 0 11 C-0.36089448 7.31144615 -0.22933459 3.6948351 0 0 Z " fill="#9A735A" transform="translate(211,349)"/>
<path d="M0 0 C0.33 1.32 0.66 2.64 1 4 C-5.14285714 9.57142857 -5.14285714 9.57142857 -10 10 C-6.66666667 6.66666667 -3.33333333 3.33333333 0 0 Z " fill="#C3A579" transform="translate(322,315)"/>
<path d="M0 0 C6.4 0.36923077 6.4 0.36923077 9.4375 3.5625 C9.953125 4.366875 10.46875 5.17125 11 6 C10.01 6.495 10.01 6.495 9 7 C9 6.34 9 5.68 9 5 C6.03 4.01 3.06 3.02 0 2 C0 1.34 0 0.68 0 0 Z " fill="#422B10" transform="translate(348,97)"/>
<path d="M0 0 C5.75 2.625 5.75 2.625 8 6 C7.01 6.66 6.02 7.32 5 8 C0 2.25 0 2.25 0 0 Z " fill="#E5C787" transform="translate(175,321)"/>
<path d="M0 0 C1.32 0.33 2.64 0.66 4 1 C2.35 2.98 0.7 4.96 -1 7 C-1.33 6.34 -1.66 5.68 -2 5 C-2.66 4.67 -3.32 4.34 -4 4 C-3.01 3.67 -2.02 3.34 -1 3 C-0.67 2.01 -0.34 1.02 0 0 Z " fill="#3E2711" transform="translate(320,313)"/>
<path d="M0 0 C1.98 0.99 1.98 0.99 4 2 C4.125 4.875 4.125 4.875 4 8 C3.34 8.66 2.68 9.32 2 10 C1.34 6.7 0.68 3.4 0 0 Z " fill="#322A27" transform="translate(408,411)"/>
<path d="M0 0 C0.33 1.32 0.66 2.64 1 4 C-1.97180943 5.89865603 -4.51460083 7.35455571 -8 8 C-5.33333333 5.33333333 -2.66666667 2.66666667 0 0 Z " fill="#381E0B" transform="translate(276,370)"/>
<path d="M0 0 C-1.33332095 3.99996286 -3.4957827 4.83782337 -7 7 C-6.67 5.02 -6.34 3.04 -6 1 C-3.92446352 0.4465236 -2.15634036 0 0 0 Z " fill="#9D765B" transform="translate(286,361)"/>
<path d="M0 0 C1.65 0 3.3 0 5 0 C5.66 1.65 6.32 3.3 7 5 C4.03 4.505 4.03 4.505 1 4 C0.67 2.68 0.34 1.36 0 0 Z " fill="#EFF0EF" transform="translate(178,361)"/>
<path d="M0 0 C-1.63412443 1.70840281 -2.86906094 2.93453047 -5 4 C-6.99960012 4.039992 -9.00047242 4.04346799 -11 4 C-7.26280719 0.48264206 -5.13496308 -0.47767098 0 0 Z " fill="#331906" transform="translate(287,339)"/>
<path d="M0 0 C7.75 -0.125 7.75 -0.125 10 1 C10 1.66 10 2.32 10 3 C6.7 2.67 3.4 2.34 0 2 C0 1.34 0 0.68 0 0 Z " fill="#C7AD81" transform="translate(312,339)"/>
<path d="M0 0 C1.65 1.65 3.3 3.3 5 5 C4.34 5.66 3.68 6.32 3 7 C1.35 6.01 -0.3 5.02 -2 4 C-1.34 2.68 -0.68 1.36 0 0 Z " fill="#D0B484" transform="translate(176,315)"/>
<path d="M0 0 C6.75 0.875 6.75 0.875 9 2 C9.625 4.0625 9.625 4.0625 10 6 C6.00499382 4.6302836 3.19990508 2.74277578 0 0 Z " fill="#412410" transform="translate(208,178)"/>
<path d="M0 0 C0.33 0 0.66 0 1 0 C1.06058594 0.66386719 1.12117188 1.32773438 1.18359375 2.01171875 C1.79863507 8.54908081 1.79863507 8.54908081 3 15 C2.01 15 1.02 15 0 15 C0 10.05 0 5.1 0 0 Z " fill="#ECCB8A" transform="translate(378,112)"/>
<path d="M0 0 C1.98 1.65 3.96 3.3 6 5 C4.02 5.99 4.02 5.99 2 7 C0.5393715 4.35261084 0 3.10551666 0 0 Z " fill="#D6D3D4" transform="translate(392,386)"/>
<path d="M0 0 C3.36591866 1.44253657 5.51047079 3.33264727 8 6 C6.35 6 4.7 6 3 6 C2.01 4.02 1.02 2.04 0 0 Z " fill="#655233" transform="translate(392,361)"/>
<path d="M0 0 C1.65 0 3.3 0 5 0 C5 1.32 5 2.64 5 4 C3.02 4 1.04 4 -1 4 C-0.67 2.68 -0.34 1.36 0 0 Z " fill="#F0F1F2" transform="translate(316,361)"/>
<path d="M0 0 C5.445 1.485 5.445 1.485 11 3 C11 3.33 11 3.66 11 4 C6.45194365 4.17835515 3.1205746 3.99785435 -1 2 C-0.67 1.34 -0.34 0.68 0 0 Z " fill="#8F6447" transform="translate(216,342)"/>
<path d="M0 0 C0.66 0.33 1.32 0.66 2 1 C2 3.64 2 6.28 2 9 C1.01 9 0.02 9 -1 9 C-0.67 6.03 -0.34 3.06 0 0 Z " fill="#855D42" transform="translate(361,238)"/>
<path d="M0 0 C3.465 1.485 3.465 1.485 7 3 C6.67 4.65 6.34 6.3 6 8 C5.34 8 4.68 8 4 8 C0 2.58823529 0 2.58823529 0 0 Z " fill="#CFAF83" transform="translate(337,61)"/>
<path d="M0 0 C1.98 0.99 1.98 0.99 4 2 C3.67 2.66 3.34 3.32 3 4 C3.66 4 4.32 4 5 4 C4.67 4.99 4.34 5.98 4 7 C3.01 7.33 2.02 7.66 1 8 C0.67 5.36 0.34 2.72 0 0 Z " fill="#D4D1D7" transform="translate(363,368)"/>
<path d="M0 0 C0.6875 1.6875 0.6875 1.6875 1 4 C-0.4375 6.75 -0.4375 6.75 -2 9 C-2.99 8.34 -3.98 7.68 -5 7 C-4.360625 6.21625 -3.72125 5.4325 -3.0625 4.625 C-1.01857687 2.20460719 -1.01857687 2.20460719 0 0 Z " fill="#3C220D" transform="translate(361,249)"/>
<path d="M0 0 C1.99173794 3.98347589 2.46902162 5.6850011 2 10 C1.01 10.66 0.02 11.32 -1 12 C-0.67 8.04 -0.34 4.08 0 0 Z " fill="#331906" transform="translate(363,239)"/>
<path d="M0 0 C-1 3 -1 3 -2.84765625 3.94921875 C-3.57855469 4.19285156 -4.30945313 4.43648437 -5.0625 4.6875 C-6.16271484 5.06455078 -6.16271484 5.06455078 -7.28515625 5.44921875 C-7.85105469 5.63097656 -8.41695313 5.81273437 -9 6 C-9.33 5.34 -9.66 4.68 -10 4 C-8.35 3.67 -6.7 3.34 -5 3 C-5 2.34 -5 1.68 -5 1 C-2 0 -2 0 0 0 Z " fill="#3A1D08" transform="translate(324,180)"/>
<path d="M0 0 C4.31392226 0.4793247 6.16569547 1.7457985 9 5 C8.67 5.66 8.34 6.32 8 7 C6.66382648 6.02471263 5.3311249 5.04466681 4 4.0625 C3.2575 3.51722656 2.515 2.97195313 1.75 2.41015625 C1.1725 1.94480469 0.595 1.47945313 0 1 C0 0.67 0 0.34 0 0 Z " fill="#372D25" transform="translate(230,400)"/>
<path d="M0 0 C2.31 0.66 4.62 1.32 7 2 C7.33 3.65 7.66 5.3 8 7 C6.66382648 6.02471263 5.3311249 5.04466681 4 4.0625 C3.2575 3.51722656 2.515 2.97195313 1.75 2.41015625 C1.1725 1.94480469 0.595 1.47945313 0 1 C0 0.67 0 0.34 0 0 Z " fill="#967355" transform="translate(232,377)"/>
<path d="M0 0 C3 1 3 1 6 3 C5.67 3.66 5.34 4.32 5 5 C4.01 5 3.02 5 2 5 C0.3125 3 0.3125 3 -1 1 C-0.67 0.67 -0.34 0.34 0 0 Z " fill="#362A24" transform="translate(204,376)"/>
<path d="M0 0 C2.62187494 1.04874998 3.79371361 1.64931313 5.25 4.125 C5.4975 4.74375 5.745 5.3625 6 6 C4.35 6 2.7 6 1 6 C0.67 4.02 0.34 2.04 0 0 Z " fill="#5A422B" transform="translate(402,369)"/>
<path d="M0 0 C1.32 0 2.64 0 4 0 C4 0.99 4 1.98 4 3 C2.02 3.99 0.04 4.98 -2 6 C-1.34 4.02 -0.68 2.04 0 0 Z " fill="#342B21" transform="translate(121,370)"/>
<path d="M0 0 C1.32 0.66 2.64 1.32 4 2 C2.71034824 3.37562854 1.37310707 4.70766393 0 6 C-0.66 6 -1.32 6 -2 6 C-1.125 1.125 -1.125 1.125 0 0 Z " fill="#311A08" transform="translate(180,154)"/>
<path d="M0 0 C0.33 0 0.66 0 1 0 C1 3.3 1 6.6 1 10 C-0.32 9.67 -1.64 9.34 -3 9 C-2.01 6.03 -1.02 3.06 0 0 Z " fill="#624929" transform="translate(303,60)"/>
<path d="M0 0 C1.65 0 3.3 0 5 0 C5.33 2.64 5.66 5.28 6 8 C3.87961365 5.38485683 1.86908256 2.80362384 0 0 Z " fill="#EDD49E" transform="translate(184,333)"/>
<path d="M0 0 C3.82097239 0.53069061 6.06171403 1.49701566 9 4 C6.03 3.67 3.06 3.34 0 3 C0 2.01 0 1.02 0 0 Z " fill="#8C5F3E" transform="translate(235,325)"/>
<path d="M0 0 C0.33 0.99 0.66 1.98 1 3 C-1.30368736 4.06652192 -3.64018187 5.06421005 -6 6 C-6.66 5.67 -7.32 5.34 -8 5 C-4.04 2.525 -4.04 2.525 0 0 Z " fill="#3D200D" transform="translate(295,315)"/>
<path d="M0 0 C0.66 0.99 1.32 1.98 2 3 C-0.35953094 5.35953094 -1.77895617 5.49141413 -5 6 C-3.86695008 2.60085025 -2.87481525 1.94745549 0 0 Z " fill="#BFA175" transform="translate(365,271)"/>
<path d="M0 0 C0.66 0.33 1.32 0.66 2 1 C1.04882866 2.1725131 0.08882991 3.33787015 -0.875 4.5 C-1.40867187 5.1496875 -1.94234375 5.799375 -2.4921875 6.46875 C-2.98976563 6.9740625 -3.48734375 7.479375 -4 8 C-4.66 8 -5.32 8 -6 8 C-4.55746343 4.63408134 -2.66735273 2.48952921 0 0 Z " fill="#D3B486" transform="translate(372,265)"/>
<path d="M0 0 C0.66 0.66 1.32 1.32 2 2 C0.02 2.99 0.02 2.99 -2 4 C-2 4.66 -2 5.32 -2 6 C-4.64 6 -7.28 6 -10 6 C-10 5.67 -10 5.34 -10 5 C-7.69 5 -5.38 5 -3 5 C-3 4.34 -3 3.68 -3 3 C-2.34 3 -1.68 3 -1 3 C-0.67 2.01 -0.34 1.02 0 0 Z " fill="#3D3733" transform="translate(328,128)"/>
<path d="M0 0 C0.33 0.66 0.66 1.32 1 2 C-1 4 -3 6 -5 8 C-5.33 7.34 -5.66 6.68 -6 6 C-2.25 1.125 -2.25 1.125 0 0 Z " fill="#503C1E" transform="translate(310,51)"/>
<path d="M0 0 C2.02045442 0.60183749 4.02111039 1.27306096 6 2 C6.33 2.66 6.66 3.32 7 4 C5.68 4.33 4.36 4.66 3 5 C2.01 3.35 1.02 1.7 0 0 Z " fill="#534126" transform="translate(72,447)"/>
<path d="M0 0 C2.97 1.98 2.97 1.98 6 4 C2.71023192 5.09658936 1.28696233 4.79953138 -2 4 C-2 3.34 -2 2.68 -2 2 C-1.34 2 -0.68 2 0 2 C0 1.34 0 0.68 0 0 Z " fill="#D7D4D7" transform="translate(220,392)"/>
<path d="M0 0 C2.97 1.98 2.97 1.98 6 4 C5.01 5.485 5.01 5.485 4 7 C2 6 2 6 1 3 C0.34 2.34 -0.32 1.68 -1 1 C-0.67 0.67 -0.34 0.34 0 0 Z " fill="#D3D2D4" transform="translate(214,387)"/>
<path d="M0 0 C0.99 0.33 1.98 0.66 3 1 C1.6875 3 1.6875 3 0 5 C-0.99 5 -1.98 5 -3 5 C-3 4.01 -3 3.02 -3 2 C-2.01 2 -1.02 2 0 2 C0 1.34 0 0.68 0 0 Z " fill="#2F251E" transform="translate(101,388)"/>
<path d="M0 0 C0.33 0.99 0.66 1.98 1 3 C0.34 3 -0.32 3 -1 3 C-0.67 2.01 -0.34 1.02 0 0 Z M-1 3 C-1.66 4.32 -2.32 5.64 -3 7 C-4.32 6.67 -5.64 6.34 -7 6 C-3.25 3 -3.25 3 -1 3 Z " fill="#43240F" transform="translate(303,308)"/>
<path d="M0 0 C0.66 0.99 1.32 1.98 2 3 C-0.64 3.66 -3.28 4.32 -6 5 C-6 4.34 -6 3.68 -6 3 C-4.02 2.01 -2.04 1.02 0 0 Z " fill="#3D260B" transform="translate(358,273)"/>
<path d="M0 0 C0.33 0 0.66 0 1 0 C0.67 2.31 0.34 4.62 0 7 C-1.32 6.67 -2.64 6.34 -4 6 C-2.69593116 3.98079663 -1.36176581 1.98075027 0 0 Z " fill="#C6A87B" transform="translate(376,258)"/>
<path d="M0 0 C0.66 0 1.32 0 2 0 C0.47291037 3.43595166 -1.59927045 6.11912454 -4 9 C-3.4739075 5.21213403 -2.61896089 2.82847776 0 0 Z " fill="#3A210B" transform="translate(141,228)"/>
<path d="M0 0 C0 0.66 0 1.32 0 2 C-0.66 2 -1.32 2 -2 2 C-2 2.99 -2 3.98 -2 5 C-3.65 5 -5.3 5 -7 5 C-2.25 0 -2.25 0 0 0 Z " fill="#5A472E" transform="translate(190,62)"/>
</svg>
